# xmcd
#
# Track frame offsets:
#	150
#	20328
#	38945
#	54647
#	73178
#	78332
#	92079
#	108409
#	132391
#	150235
#
# Disc length: 2092 seconds
#
# Revision: 1
# Processed by: cddbd v1.5.2PL0 Copyright (c) Steve Scherf et al.
# Submitted via: audiograbber 1.83.01
#
DISCID=7c082a0a
DTITLE=Don Nix - In God We Trust
DYEAR=1971
DGENRE=Southern Rock
TTITLE0=In God We Trust
TTITLE1=Golden Mansions
TTITLE2=I'll Fly Away
TTITLE3=He Never Lived A Day Without Jesus
TTITLE4=Nero My God To Thee (feat. Furry Lewis)
TTITLE5=Amos Burke
TTITLE6=Long Way To Nowhere
TTITLE7=Iuka
TTITLE8=Will The Circle Be Unbroken
TTITLE9=I've Tried (Trucker's Lament)
EXTD=
EXTT0=
EXTT1=
EXTT2=
EXTT3=
EXTT4=
EXTT5=
EXTT6=
EXTT7=
EXTT8=
EXTT9=
PLAYORDER=
